<!--Generator: Adobe Illustrator 27.0.0, SVG Export Plug-In . SVG Version: 6.00 Build 0)--><svg version="1.1" xmlns="http://www.w3.org/2000/svg" xmlns:xlink="http://www.w3.org/1999/xlink" x="0px" y="0px" viewBox="0 0 27 34" xml:space="preserve"><style type="text/css">.st0{clip-path:url(#SVGID_00000098924686408845763360000003896729145503621563_);}
	.st1{fill:#FFFFFF;}</style><g><g><path class="st1" d="M25.4 3.3h-7.6V1.6c0-.7-.5-1.3-1.3-1.3h-5.9c-.7 0-1.3.6-1.3 1.3v1.7H1.6C.9 3.3.3 3.9.3 4.6v3.7c0 .7.6 1.3 1.3 1.3h1v21.3c0 1.6 1.4 2.9 3.1 2.9h15.7c1.7 0 3.1-1.3 3.1-2.9V9.6h.9c.8 0 1.3-.6 1.3-1.3V4.6c0-.8-.6-1.3-1.3-1.3m-13.5-.4h3.3v.4h-3.3zm10 28c0 .2-.2.4-.5.4H5.7c-.2 0-.5-.2-.5-.4V9.6h16.7zM24 7H2.9V5.9H24z"/><path class="st1" d="M19.2 13.6v13.5c0 .7-.6 1.2-1.3 1.2s-1.3-.5-1.3-1.2V13.6c0-.7.6-1.2 1.3-1.2s1.3.5 1.3 1.2"/><path class="st1" d="M14.8 13.6v13.5c0 .7-.6 1.2-1.3 1.2s-1.3-.5-1.3-1.2V13.6c0-.7.6-1.2 1.3-1.2s1.3.5 1.3 1.2"/><path class="st1" d="M10.4 13.6v13.5c0 .7-.6 1.2-1.3 1.2-.8 0-1.3-.5-1.3-1.2V13.6c0-.7.6-1.2 1.3-1.2s1.3.5 1.3 1.2"/></g></g></svg>