<svg viewBox="0 0 60 50" xmlns="http://www.w3.org/2000/svg"><g><path d="m59.56 28.76-8-10A2 2 0 0 0 50 18H38v-4c0-1.1-.9-2-2-2H24c0-6.6-5.4-12-12-12S0 5.4 0 12c0 3.54 1.54 6.72 4 8.92V44c0 1.1.9 2 2 2h4.34c.84 2.32 3.06 4 5.66 4s4.82-1.68 5.66-4h18.7c.84 2.32 3.06 4 5.66 4s4.82-1.68 5.66-4h6.34c1.1 0 2-.9 2-2V30c0-.46-.16-.9-.44-1.24zM6.92 18.2A7.98 7.98 0 0 1 4 12c0-4.44 3.56-8 8-8s8 3.56 8 8-3.56 8-8 8c-1.7 0-3.26-.52-4.56-1.4-.16-.16-.34-.3-.54-.4zM16 46c-1.12 0-2-.88-2-2s.88-2 2-2 2 .88 2 2-.88 2-2 2m18-4H21.66c-.84-2.32-3.06-4-5.66-4s-4.82 1.68-5.66 4H8V23.3c1.26.44 2.6.7 4 .7 5.2 0 9.66-3.34 11.3-8H34zm12-20h3.04l6.4 8H46zm0 24c-1.12 0-2-.88-2-2s.88-2 2-2 2 .88 2 2-.88 2-2 2m10-4h-4.34c-.84-2.32-3.06-4-5.66-4s-4.82 1.68-5.66 4H38V22h4v10c0 1.1.9 2 2 2h12z"/><path d="M12.78 17.48c.62-.12 1.14-.52 1.42-1.1l3.38-7.04c.48-1 .06-2.2-.94-2.66-1-.48-2.18-.06-2.66.94l-2.22 4.62-2.42-2.2c-.82-.74-2.08-.68-2.82.14s-.68 2.08.14 2.82l4.4 4c.38.34.86.52 1.34.52.12 0 .26 0 .38-.04"/></g></svg>