<svg xmlns="http://www.w3.org/2000/svg" version="1.1" viewBox="0 0 40 40"><!--Generator: Adobe Illustrator 29.5.1, SVG Export Plug-In . SVG Version: 2.1.0 Build 141)--><defs><style>.st0 {
        fill: #6f6f6f;
      }</style></defs><path class="st0" d="M20 39.7C9.1 39.7.3 30.9.3 20S9.1.3 20 .3 39.7 9.1 39.7 20 30.9 39.7 20 39.7m0-37.4C10.2 2.3 2.3 10.2 2.3 20S10.2 37.7 20 37.7 37.7 29.8 37.7 20 29.8 2.3 20 2.3"/><path class="st0" d="M33.3 12c0-1.5-1.2-2.7-2.7-2.7H9.3c-1.5 0-2.7 1.2-2.7 2.7v16c0 1.5 1.2 2.7 2.7 2.7h21.3c1.5 0 2.7-1.2 2.7-2.7zm-2.6 0L20 18.7 9.3 12zm0 16H9.3V14.7L20 21.3l10.7-6.7z"/></svg>