<svg xmlns="http://www.w3.org/2000/svg" viewBox="0 0 60 59.93"><defs><style>.cls-1 {
        fill: #6f6f6f;
      }</style></defs><g><path class="cls-1" d="M58.98 14.84c-.44-.57-.99-1.01-1.61-1.32-.06-.26-.12-.52-.22-.76a5.25 5.25 0 0 0-4.86-3.33h-4.18V5.27C48.1 2.37 45.76.02 42.87.02h-7.92c-2.89 0-5.24 2.35-5.24 5.24v.77h-7.66c-2.89 0-5.24 2.35-5.24 5.23V13h-.83l-1.62-7.19A7.4 7.4 0 0 0 7.1 0H1.21C.54 0 0 .54 0 1.21s.54 1.21 1.21 1.21H7.1c2.36 0 4.38 1.61 4.9 3.92L13.5 13l6.76 30.05.73 3.23c-3.18.61-5.59 3.41-5.59 6.76 0 3.8 3.09 6.89 6.89 6.89 2.88 0 5.36-1.78 6.38-4.31h16.47c1.02 2.52 3.5 4.31 6.38 4.31 3.8 0 6.89-3.09 6.89-6.89s-3.09-6.89-6.89-6.89-6.89 3.09-6.89 6.89v.16H29.15v-.16c0-3.4-2.47-6.22-5.71-6.78l-.72-3.21h27.36c2.21 0 4.12-1.5 4.65-3.64l5.11-20.46c.36-1.44.04-2.94-.88-4.11Zm-7.47 33.73c2.46 0 4.47 2 4.47 4.47s-2 4.47-4.47 4.47-4.47-2-4.47-4.47 2-4.47 4.47-4.47m.77-37.15c1.14 0 2.19.62 2.76 1.58H40.19c.58-.97 1.63-1.58 2.77-1.58h9.31ZM31.71 5.26a3.24 3.24 0 0 1 3.24-3.24h7.92c1.78 0 3.23 1.45 3.23 3.24v4.16h-1.84c-.76-2-2.69-3.39-4.88-3.39h-7.67zm-12.9 6c0-1.78 1.45-3.23 3.24-3.23h17.33c1.11 0 2.11.58 2.7 1.47-1.73.3-3.21 1.45-3.92 3.1-.05.13-.08.26-.12.39H18.82v-1.74Zm-2.29 4.16H26.9L27.92 23h-9.69l-1.7-7.58Zm2.25 10h9.47l.95 7.1h-8.83l-1.6-7.1Zm7.98 27.62c0 2.46-2 4.47-4.47 4.47s-4.47-2-4.47-4.47 2-4.47 4.47-4.47 4.47 2 4.47 4.47m-4.56-12.41-1.28-5.69h8.61l.76 5.69h-8.1Zm20.11 0h-9.57l-.76-5.69h11.09l-.75 5.69Zm1.07-8.11H31.64l-.95-7.1h13.62zM30.36 23l-1.02-7.58h16.29l-1 7.58zM52.4 38.83a2.364 2.364 0 0 1-2.3 1.8h-5.36l.75-5.69h7.88zm1.57-6.31h-8.16l.93-7.1h9.01zm3.54-14.15L56.35 23h-9.29l1-7.58h7.14c.74 0 1.42.33 1.87.91s.61 1.32.44 2.04"/></g></svg>