<svg viewBox="0 0 60 44" xmlns="http://www.w3.org/2000/svg"><path d="M43.885 16.22c4.904 4.903 9.778 9.837 14.729 14.694 1.657 1.625 1.912 4.325-.008 6.225a3505 3505 0 0 0-21.472 21.468c-1.66 1.672-3.923 1.789-5.494.619-.536-.399-.991-.912-1.467-1.389-9.611-9.606-19.217-19.216-28.826-28.825-1.78-1.78-1.802-4.212-.027-5.99Q12.208 12.123 23.108 1.238c1.669-1.667 4.148-1.644 5.826.033q7.477 7.474 14.951 14.949m-19.922 4.06-.14.041 3.032 22.459 6.062-6.062 8.281 8.28-2.932-22.669-6.127 6.128zM5.236 29.587c.482-.605.882-1.22 1.39-1.729A6423 6423 0 0 1 26.018 8.465c1.142-1.137 2.122-2.476 3.656-3.157-.037-.076-.046-.117-.07-.14l-2.179-2.193c-.93-.932-1.902-.93-2.836.003L13.022 14.54Q7.955 19.606 2.89 24.673c-.664.665-.855 1.609-.306 2.23.848.962 1.801 1.831 2.652 2.683z"/><path d="M11.72 17.643c.515.515.972.952 1.4 1.419.073.08.082.34.012.41-1.265 1.29-2.547 2.565-3.878 3.896-.507-.507-.986-.97-1.44-1.457-.06-.065-.046-.3.022-.37 1.268-1.288 2.548-2.564 3.883-3.898"/><path d="m19.232 13.333-1.57-1.57 4.027-4.027 1.57 1.57z"/></svg>