<svg viewBox="0 0 36 40" xmlns="http://www.w3.org/2000/svg"><g><path d="M24.55.1c.278.071.523.13.765.198 1.916.537 3.778 1.21 5.574 2.084 1.58.768 2.577 1.97 3.14 3.611a30.6 30.6 0 0 1 1.364 5.83c.227 1.667.4 3.341.595 5.012.06.512-.102.833-.54 1.028-1.837.82-3.739 1.413-5.75 1.61-.075.007-.149 0-.254 0-.007-.13-.02-.253-.02-.378 0-1.775-.009-3.55.005-5.325.009-1.094.193-2.161.668-3.153.18-.375.422-.727.677-1.058.335-.433.362-.918.02-1.232-.366-.335-.853-.277-1.24.161a6.23 6.23 0 0 0-1.495 3.218 21 21 0 0 0-.24 3.12c-.02 7.408-.01 14.815-.01 22.222 0 .642-.158.845-.789 1.034-2.015.6-4.082.914-6.175.98-1.95.063-3.906.069-5.856-.005-2.04-.078-4.06-.386-6.023-.98-.629-.19-.776-.392-.776-1.04 0-7.752.008-15.504-.008-23.256-.004-1.64-.34-3.219-1.24-4.629a4.8 4.8 0 0 0-.643-.805c-.318-.319-.79-.302-1.104-.005-.293.275-.353.766-.077 1.076 1.074 1.207 1.4 2.676 1.442 4.216.05 1.863.013 3.729.013 5.593 0 .074-.008.148-.017.317-.778-.138-1.542-.205-2.265-.414-1.232-.359-2.443-.792-3.652-1.224-.52-.186-.677-.504-.63-1.048.238-2.795.566-5.578 1.213-8.313.32-1.352.722-2.677 1.366-3.922.521-1.01 1.385-1.616 2.339-2.128C6.914 1.425 9.046.742 11.212.153c.07-.02.149-.011.24-.017.02.37 0 .732.068 1.077.218 1.112.947 1.872 1.89 2.381 3.14 1.695 6.291 1.684 9.385-.133.846-.497 1.48-1.221 1.678-2.228.068-.346.052-.708.078-1.133"/><path d="M13.16 0c3.221.878 6.463.893 9.682 0 .245.971-.155 1.594-.86 2.057-1.443.95-3.043 1.262-4.746 1.103-1.067-.1-2.076-.393-2.997-.955a5 5 0 0 1-.316-.215c-.642-.464-.991-1.055-.763-1.988z"/></g></svg>