<svg viewBox="0 0 60 63" xmlns="http://www.w3.org/2000/svg"><g><path d="M58.816 35.694c-1.222-10.288-3.664-18.161-7.466-22.675-.272-.21-1.9-1.68-2.444-2.205a1.5 1.5 0 0 0-.442-.233c-1.373-1.034-2.628-1.783-3.766-2.076.136-1.155-.271-2.52-1.221-3.78C41.442 1.785 36.963 0 29.905 0S18.367 1.784 16.33 4.723c-.95 1.26-1.358 2.625-1.358 3.78-1.086.316-2.307 1.05-3.936 2.31-.542.524-1.221.945-1.764 1.47a4.4 4.4 0 0 1-.678.63c-3.8 4.617-6.242 12.492-7.464 22.78C.044 43.882-.092 52.492.044 60.049v1.89c0 .524.678 1.05 1.358 1.05H6.83c.542 0 1.086-.21 1.222-.63l3.557-6.642q.317.23.65.442v4.73c0 1.154 1.222 2.1 2.714 2.1h29.861c1.494 0 2.714-.946 2.714-2.1v-4.646q.405-.253.786-.528l2.864 5.345.56 1.297q.407.63 1.222.63h5.565c.678 0 1.358-.42 1.358-1.05v-1.89c.272-7.557 0-16.166-1.086-24.354zm-52.8 25.195H2.894v-3.15h4.83zm3.53-39.367a330 330 0 0 0-.34 19.11c.025 4.291.133 8.876.34 13.75l-.683 1.259H2.798c-.046-6.332.277-13.205 1.046-19.736 1.203-9.2 3.195-16.463 6.237-20.794a88 88 0 0 0-.536 6.41m35.29 39.367H14.973V57.54a17 17 0 0 0 1.974.642q.023.007.047.012c1.51.39 3.114.594 4.767.594h16.423c2.363 0 4.624-.416 6.652-1.195zm2.85-7.769c-1.849 1.85-4.481 3.027-7.34 3.42l-.155.02-.191.023-.28.03-.126.012a13 13 0 0 1-.503.036q-.18.01-.36.016l-.114.003q-.216.006-.434.006H21.759q-.217 0-.434-.006l-.11-.003q-.192-.007-.384-.018l-.05-.003a15 15 0 0 1-.947-.089h-.003a15 15 0 0 1-3.697-.942l-.017-.008a9 9 0 0 1-.339-.144l-.15-.065-.11-.052c-1.232-.573-2.341-1.323-3.257-2.24a362 362 0 0 1-.345-14.863c.01-5.99.184-11.36.48-16.106.248-4.781.721-8.516 1.007-10.017.925-.713 1.719-1.224 2.208-1.435.347.474.823 1.008 1.401 1.583 1.629 1.575 3.665 2.519 6.108 2.519.814 0 1.358-.42 1.358-1.05s-.542-1.05-1.358-1.05c-1.493 0-2.85-.63-4.072-1.68-.407-.42-.814-.84-1.085-1.26-.174-.268-.236-.45-.294-.574-.069-1.083.218-2.24.973-3.31 1.628-2.414 5.158-3.78 11.266-3.78s9.637 1.365 11.265 3.676c.814 1.154 1.086 2.414.95 3.464l-.001.017c-.305.43-1.038 1.334-1.356 1.662-1.222 1.05-2.578 1.68-4.072 1.68-.814 0-1.358.42-1.358 1.05s.542 1.05 1.358 1.05c2.444 0 4.48-.945 6.108-2.519a9 9 0 0 0 1.423-1.585c.538.214 1.423.742 2.377 1.48 0 .105.136 1.26.271 1.996a84 84 0 0 1 .679 7.453c.542 8.399.678 18.897.136 31.599zm9.366 7.035v.734H53.93l-1.628-3.15h4.817q-.024 1.222-.066 2.414zm.095-4.41h-6.199l-.682-1.26.03-.588a.8.8 0 0 0 .106-.355c.542-12.912.407-23.515-.136-32.123a84 84 0 0 0-.527-6.382c3.113 4.204 5.144 11.543 6.363 20.974.768 6.545 1.093 13.366 1.045 19.736z"/><path d="M27.869 12.597h4.072a3.7 3.7 0 0 0 2.171-.734l3.258-3.255c1.358-1.364.136-3.36-2.172-3.36H24.611c-2.308 0-3.53 1.996-2.172 3.36l3.258 3.15c.542.525 1.358.839 2.172.839m7.33-5.248-3.258 3.15h-4.072l-3.258-3.15z"/><path d="M17.69 24.803c.705.316 1.447.164 1.855-.381l5.452-7.263c.41-.545.212-1.118-.492-1.434-.705-.316-1.447-.164-1.855.381l-5.452 7.263c-.409.545-.212 1.118.492 1.434"/><path d="M33.977 14.697c-.613.414-.664 1.008-.128 1.481l7.146 6.324c.536.473 1.302.514 1.916.1.612-.414.664-1.008.128-1.482l-7.147-6.323c-.536-.473-1.301-.514-1.915-.1"/><path d="M43.478 48.29c-2.85 0-5.43-2.729-5.43-6.298 0-.63-.542-1.05-1.357-1.05H23.117c-.814 0-1.358.42-1.358 1.05 0 3.57-2.578 6.299-5.43 6.299-.813 0-1.357.42-1.357 1.05v4.2c0 .63.542 1.05 1.358 1.05h27.147c.814 0 1.357-.42 1.357-1.05v-4.199c0-.63-.542-1.05-1.357-1.05zm-1.358 4.2H17.69v-2.204c3.529-.63 6.243-3.569 6.787-7.244h10.857c.543 3.675 3.258 6.614 6.788 7.244v2.205z"/><path d="m39.956 30.386.155-.069c1.542-.728 1.383-1.567 1.061-2.436-.112-.305-.22-.59-.211-.91.014-.515-.116-.893-.395-1.155-.457-.427-1.108-.366-1.797-.302-.616.058-1.252.119-1.764-.139-.733-.366-1.305-.155-1.72-.002-.446.163-.765.282-1.432-.132-.56-.35-.772-.75-.976-1.135-.264-.498-.596-1.12-1.607-1.21-1.425-.127-2.247 1.118-2.848 2.026-.664 1.003-.84 1.122-1.072.987-.852-.501-1.552-.204-2.012-.006-.336.144-.488.195-.64.135a5 5 0 0 0-.338-.12l-.118-.034a7 7 0 0 0-.237-.064c-1.105-.272-2.685-.39-3.68-.039l-.003.002-.023.01c-.274.1-.502.237-.661.416a1 1 0 0 0-.254.591c-.014.216.041.442.165.667.934 1.683.767 2.34-.399 4.063-.767 1.133-.566 1.854-.264 2.258.778 1.042 3.006.871 4.025.55.698-.22 1.192-.544 1.628-.83.616-.403.986-.646 1.683-.507 1.22.246 2.228 1.468 2.228 1.98-.052.08-.175.233-.269.35-.428.533-.964 1.197-.85 1.892.036.229.164.553.557.805 1.118.717 2.17-.72 3.012-1.876.208-.286.498-.685.697-.894.45.406.953.551 1.403.589-.06.187-.083.378-.055.576.097.697.718 1.152 1.957 2.057.22.16.475.242.75.242q.176.001.362-.046c1.025-.248 2.01-1.487 2.247-1.964.195-.39.134-.696.05-.887-.233-.517-.847-.677-1.439-.834a5 5 0 0 1-.619-.193c.252-.453 1.003-.976 1.674-1.443.748-.52 1.454-1.013 1.748-1.57.152-.285.138-.593.123-.862-.02-.446.013-.478.16-.542z"/></g></svg>