<svg viewBox="0 0 36 37" xmlns="http://www.w3.org/2000/svg"><g><path d="M6.26 36.027H0V34.69c.024-.086.06-.171.07-.26.175-1.463.342-2.928.518-4.392.247-2.056.503-4.11.747-6.168.223-1.882.432-3.766.656-5.65.27-2.277.548-4.554.822-6.83.161-1.341.82-2.368 2.022-2.98 1.25-.635 2.535-1.203 3.81-1.785.21-.096.304-.19.291-.437-.058-1.137.316-2.143 1.002-3.033.971-1.262 2.29-2.017 3.775-2.504 2.157-.706 4.367-.798 6.594-.469 1.698.251 3.3.793 4.66 1.886 1.34 1.076 2.14 2.436 2.09 4.205-.006.224.121.274.27.344 1.272.593 2.552 1.167 3.81 1.788 1.062.525 1.709 1.412 1.96 2.56.129.59.164 1.203.236 1.807q.264 2.212.526 4.426l.527 4.391q.27 2.265.536 4.53l.592 5.02c.148 1.256.276 2.514.46 3.764.073.5.005.874-.458 1.124h-5.767c-.32-.175-.493-.437-.539-.806-.114-.929-.245-1.855-.373-2.781l-.299-2.13a71 71 0 0 0-.043 3.38c.003.4-.165.67-.533.819-.152.061-.301.129-.456.184-1.928.695-3.934 1.007-5.965 1.192l-1.568.142h-4.01c-.077-.02-.154-.048-.234-.056-1.047-.102-2.098-.17-3.14-.306-1.531-.201-3.034-.535-4.477-1.11-.45-.178-.656-.48-.65-.964.013-.855.005-1.71.006-2.564v-.511c-.265 1.46-.464 2.919-.657 4.377-.058.442-.109.883-.553 1.134zm17.685-25.76c.157.636.306 1.22.441 1.805.055.24.088.484.115.728a1.2 1.2 0 0 1-.275.947c-.339.41-.311.82.05 1.111.32.26.77.19 1.089-.17.478-.538.694-1.179.605-1.88-.091-.715-.263-1.421-.41-2.129-.146-.698-.333-1.389-.14-2.112.117-.437-.007-.757-.333-.94-.315-.179-.652-.1-.97.232-.058.06-.11.122-.166.183-.764.84-1.494 1.715-2.3 2.513-1.246 1.233-2.773 1.687-4.505 1.426-1.32-.2-2.376-.864-3.248-1.858a133 133 0 0 0-2.047-2.27c-.406-.443-.955-.432-1.243.046-.687 1.138-1.038 2.352-.711 3.686.169.692.374 1.375.54 2.067.066.27.042.561.109.83.092.37.43.566.807.517a.69.69 0 0 0 .607-.702c.002-.268.005-.544-.054-.802-.162-.704-.356-1.402-.537-2.103-.152-.585-.16-1.16.082-1.779.54.6 1.04 1.17 1.555 1.726 1.186 1.282 2.653 2.033 4.39 2.17 2.27.181 4.175-.614 5.702-2.305z"/></g></svg>