<svg viewBox="0 0 69 62" xmlns="http://www.w3.org/2000/svg"><g><path d="M66.475 16.407C63.914 12.296 62 9.815 59.964 7.941c-2.05-1.901-3.128-2.602-6.62-4.382-1.82-.917-3.842-1.981-4.502-2.358C47.01.137 47.212.149 45.487.999c-1.766.85-4.152 1.671-6.162 2.116-1.24.27-1.793.31-4.516.31s-3.29-.04-4.624-.31C27.61 2.603 24.7 1.538 22.851.447c-.445-.256-.957-.458-1.158-.445-.204 0-1.161.471-2.132 1.037-.958.567-2.953 1.74-4.422 2.576C9.546 6.862 6.418 9.775 3.008 14.91 1.807 16.742.365 19.278.08 20.087c-.23.688.027 1.268.768 1.726.31.189 3.491 1.834 7.078 3.64 5.487 2.777 6.579 3.289 6.902 3.208.243-.067.525-.35.862-.836.27-.418.498-.728.526-.715.162.175-1.334 16.163-2.723 29.104-.27 2.562-.457 4.813-.405 5.015.202.808-1.064.768 21.368.768h20.49l.378-.324.364-.325-.364-4.893c-.972-12.82-1.982-27.366-1.982-28.553v-.552l.647.673c.377.391.768.674.931.674.27 0 3.128-1.524 10.327-5.514 2.723-1.524 3.479-1.996 3.545-2.252.095-.377-.715-1.954-2.32-4.528zM24.321 3.627c.054 0 .58.19 1.146.405 3.02 1.173 6.363 1.685 10.474 1.578 3.074-.066 4.287-.27 6.93-1.118.808-.27 1.495-.458 1.523-.432.095.109-1.67 2.211-2.493 2.98-2.292 2.103-4.759 3.181-7.32 3.194-2.939 0-5.65-1.187-7.914-3.491-.972-.985-2.576-3.116-2.346-3.116M15.53 24.74c-.647.876-1.199 1.632-1.227 1.644-.04.055-11.379-6-11.566-6.187-.067-.054.243-.728.727-1.564 2.022-3.478 4.126-6.336 6.107-8.29 1.119-1.106 3.56-3.073 3.801-3.073.08 0 .335.296.579.673.998 1.524 1.94 4.396 2.386 7.28.135.85.256 2.71.296 4.664l.081 3.249-1.187 1.604zM53.532 59.6c.054.23-.931.244-19.076.244-10.515 0-19.13-.026-19.13-.054s.296-2.845.673-6.242c2.223-20.504 3.033-31.33 2.697-35.805-.325-4.396-1.335-8.036-2.913-10.555-.336-.553-.58-1.052-.526-1.107.109-.12 5.77-3.383 5.865-3.383.042-.013.244.338.46.755 1.064 2.197 3.236 4.88 5.068 6.268 1.173.89 3.29 1.9 4.787 2.278 1.55.39 4.353.431 5.77.08 3.734-.93 7.104-3.68 9.597-7.845.365-.593.661-1.093.674-1.107.04-.066 6.336 3.33 6.376 3.45.027.068-.147.446-.39.837-1.012 1.713-1.82 4.005-2.306 6.552-.283 1.43-.31 1.981-.297 5.5 0 2.143.081 5.029.162 6.403.094 1.375.324 4.8.512 7.617.554 8.56 1.86 25.507 1.995 26.112zm12.725-39.187c-.067.04-10.393 5.69-10.718 5.85-.27.135-.364.04-1.348-1.294l-1.052-1.442-.161-2.373c-.325-4.637.282-8.56 1.806-11.66.485-.998.997-1.82 1.132-1.82.04 0 .472.296.944.66 2.184 1.645 4.327 4.017 6.443 7.159 1.012 1.495 3.033 4.853 2.953 4.921z"/><path d="M44.372 20.162a.76.76 0 0 0-.785.048 9.86 9.86 0 0 0-4.146 6.766l-.726 5.369-.005.023a.76.76 0 0 0 .577.906 1.52 1.52 0 0 1 1.187 1.522c-.017.815-.738 1.48-1.604 1.48h-.759q-.19.001-.377.02l-.065-.14-.628-1.22a17 17 0 0 1-1.88-7.758v-9.885a.758.758 0 1 0-1.517 0v9.885a17 17 0 0 1-1.878 7.756l-.629 1.22q-.033.068-.065.14a4 4 0 0 0-.377-.016h-.759c-.865 0-1.587-.666-1.607-1.48a1.53 1.53 0 0 1 1.187-1.523.76.76 0 0 0 .577-.904l-.73-5.392a9.85 9.85 0 0 0-4.146-6.766.76.76 0 0 0-1.19.626v19.996c0 .42.34.758.758.758h3.038a.758.758 0 1 0 0-1.517h-2.277v-17.61a8.32 8.32 0 0 1 2.313 4.718l.656 4.847a3.05 3.05 0 0 0-1.703 2.802c.04 1.636 1.442 2.964 3.126 2.964h.574a8.4 8.4 0 0 0 .962 6.586l2.288 3.688a.757.757 0 0 0 1.288-.003l2.289-3.688a8.4 8.4 0 0 0 .962-6.587h.574c1.68.004 3.082-1.326 3.123-2.961a3.05 3.05 0 0 0-1.704-2.802l.657-4.847a8.33 8.33 0 0 1 2.313-4.718v17.61h-2.53a.758.758 0 1 0 0 1.517h3.29c.42 0 .759-.34.759-.76V20.837a.76.76 0 0 0-.408-.674zM33.115 35.628a18.4 18.4 0 0 0 1.287-3.215c.325 1.11.757 2.188 1.286 3.215l.546 1.066a4.5 4.5 0 0 0-1.836 1.562 4.5 4.5 0 0 0-1.835-1.562zm2.93 7.95-1.643 2.648-1.644-2.648a6.88 6.88 0 0 1-.764-5.477 2.95 2.95 0 0 1 1.647 2.642v1.519a.758.758 0 1 0 1.518 0v-1.52a2.95 2.95 0 0 1 1.647-2.641 6.87 6.87 0 0 1-.764 5.477z"/></g></svg>