<svg viewBox="0 0 82 44" xmlns="http://www.w3.org/2000/svg"><g><path d="m55.602 67.126-3.269 1.455c-1.176.43-2.35.864-3.527 1.29-3.024 1.093-6.101 1.977-9.298 2.392-1.16.15-1.5-.05-1.976-1.12-4.996-11.221-9.997-22.443-14.986-33.668-.796-1.79-1.613-3.567-2.84-5.115-1.19-1.5-2.562-2.785-4.364-3.524-.721-.295-1.482.004-1.776.66s-.06 1.429.608 1.737c2.483 1.146 3.983 3.208 5.102 5.57 1.285 2.712 2.457 5.477 3.678 8.22l.244.548c-.251.112-.4.198-.562.248-3.09.944-6.257 1.366-9.481 1.378-1.027.003-1.474-.324-1.774-1.296-.916-2.963-1.893-5.91-2.727-8.895-.847-3.028-1.467-6.112-1.623-9.267-.103-2.07.102-4.06 1.364-5.841 1.944-2.744 4.304-5.082 6.828-7.272.858-.744 1.74-1.46 2.541-2.13.035.876-.1 1.784.143 2.576.345 1.12.851 2.231 1.494 3.213 1.807 2.762 4.227 4.972 6.732 7.085.782.66 1.343.631 2.166-.016.914-.718 1.835-1.427 2.82-2.191l.284.64c.962 2.158 1.92 4.318 2.89 6.473.306.683.977.978 1.621.744.714-.259 1.061-.873.901-1.613-.039-.18-.105-.354-.162-.538 1.652-.154 2.528-.782 2.846-2.025.297-1.16-.106-2.263-1.066-2.912-1.159-.784-2.151-.637-3.736.566l-1.251-2.811c.524-.185 1.004-.42 1.512-.518 1.562-.306 3.134-.56 4.7-.836.913-.16 1.306-.571 1.347-1.495.14-3.083.087-6.163-.577-9.19-.498-2.267-1.151-4.483-3.54-5.632.118-.053.188-.102.264-.115 3.48-.584 6.98-.954 10.517-.886 2.844.055 5.445.62 7.562 2.766 2.538 2.572 4.685 5.433 6.598 8.474 1.505 2.392 2.894 4.856 4.335 7.288.449.757.433 1.487-.199 2.094-1.513 1.45-3.03 2.906-4.63 4.26-.99.84-2.135 1.5-3.244 2.262-.132-.23-.203-.334-.254-.447-1.281-2.878-2.625-5.732-3.824-8.645-.958-2.332-1.426-4.76-.633-7.277.217-.691-.204-1.4-.88-1.624-.633-.209-1.383.107-1.63.758a8 8 0 0 0-.427 1.599c-.444 2.849.163 5.547 1.308 8.132 5.221 11.774 10.47 23.537 15.71 35.305.407.917.315 1.345-.447 2.013-2.426 2.129-5.155 3.808-7.98 5.34-1.138.617-2.29 1.211-3.434 1.816z"/><path d="M23.283 10.653c3.202-.635 6.017-1.865 8.658-3.842.096 1.247.189 2.315.257 3.386.175 2.796.336 5.593.509 8.388.019.317.021.631-.373.682-.213.026-.522.018-.65-.113-2.77-2.779-5.52-5.577-8.4-8.5z"/><path d="m35.387 18.331-.765-12.139c1.586.163 2.475 1.04 2.928 2.903.654 2.7.836 5.447.818 8.216-.004.402-.137.562-.526.616-.796.111-1.587.259-2.453.404z"/><path d="m20.808 11.988 8.809 8.91c-.742.587-1.427 1.151-2.144 1.672-.108.08-.418.027-.536-.078-2.253-1.981-4.361-4.095-5.904-6.702-.692-1.169-.746-2.053-.227-3.803z"/></g></svg>