<svg viewBox="0 0 73 44" xmlns="http://www.w3.org/2000/svg"><path d="M3.405 23.397c-.079.922-.243 1.847-.218 2.765.043 1.514.512 2.878 1.791 3.84.717.539 1.54.737 2.417.742 2.433.013 4.738-.646 7.118-1.357-1.54-2.264-3.044-4.46-5.527-5.722-.744-.379-1.056-1.08-.76-1.734.3-.664 1.059-.867 1.853-.477 2.254 1.106 3.94 2.867 5.307 4.9 1.796 2.668 3.458 5.426 5.175 8.148 1.667 2.642 3.44 5.196 5.76 7.335 3.235 2.981 7.045 4.431 11.429 4.432 4.254 0 8.318-.952 12.278-2.434.05-.019.09-.06.23-.158-1.074-1.328-2.092-2.68-3.205-3.948-5.894-6.722-12.342-12.872-19.433-18.32-2.14-1.645-4.481-3.03-6.746-4.511-.216-.14-.555-.184-.818-.143q-5.897.924-11.788 1.892c-1.624.267-2.774 1.256-3.706 2.548-.076.104-.178.193-.267.289z"/><path d="M23.12 15.252c9.748 6.362 18.059 14.28 25.898 22.911 1.169-1.349 2.355-2.656 3.47-4.022 1.62-1.987 3.023-4.121 4-6.505 1.109-2.707 1.56-5.47.58-8.324-.73-2.124-2.092-3.809-3.74-5.29-.367-.33-.705-.667-.677-1.228.024-.506.263-.93.706-1.042.386-.097.971-.091 1.24.138 4.535 3.849 6.613 8.803 4.84 14.755-1.073 3.605-3.089 6.671-5.43 9.546-.983 1.206-2.051 2.345-3.115 3.48-.296.315-.275.486-.039.82.844 1.19 1.637 2.418 2.465 3.62.113.164.305.295.488.384.809.391 1.628.76 2.443 1.14.803.372 1.329.293 1.843-.414 1.087-1.496 2.22-2.972 3.162-4.557a47 47 0 0 0 2.785-5.41c1.701-3.935 2.383-8.008 1.345-12.273-.812-3.333-2.618-6.065-4.953-8.49-3.887-4.04-8.51-7-13.703-9.055a26 26 0 0 0-9.185-1.826c-2.502-.04-4.687.857-6.392 2.695-2.687 2.898-5.308 5.857-7.955 8.791-.037.04-.05.102-.075.156"/></svg>