<svg viewBox="0 0 69 44" xmlns="http://www.w3.org/2000/svg"><g><path d="m31.805 69.394 32.998-17.816a3.76 3.76 0 0 0 1.518-5.081L46.724 10.199a3.76 3.76 0 0 0-5.082-1.518l-6.616 3.572C31.986 6.82 25.21 4.768 19.8 7.69c-5.412 2.921-7.413 9.712-4.538 15.235l-6.617 3.572a3.76 3.76 0 0 0-1.518 5.081l19.597 36.298a3.76 3.76 0 0 0 5.082 1.518m3.633-44.578-9.9 5.345a1.88 1.88 0 0 1-2.54-.76 1.88 1.88 0 0 1 .759-2.54l9.9-5.345a1.88 1.88 0 0 1 2.54.76 1.88 1.88 0 0 1-.76 2.54M21.58 10.989c3.58-1.933 8.095-.556 10.146 3.046L18.56 21.143c-1.886-3.69-.56-8.22 3.02-10.154"/></g></svg>