<svg xmlns="http://www.w3.org/2000/svg" xmlns:xlink="http://www.w3.org/1999/xlink" version="1.1" viewBox="0 0 50 44"><!--Generator: Adobe Illustrator 29.5.1, SVG Export Plug-In . SVG Version: 2.1.0 Build 141)--><defs><style>.st0 {
        fill: none;
      }

      .st1 {
        clip-path: url(#clippath);
      }</style></defs><g class="st1"><g><polygon points="5.8 27.5 0 21.8 22.4 0 28.1 5.7 5.8 27.5"/><polygon points="28.2 6.1 28.8 15.2 15.9 27.8 6.2 27.6 28.2 6.1"/><path d="M29 15.8 16.1 28.4l41.1 40.4 12.9-12.6zm11.1 17.9-4-3.9c-.9-.9-.9-2.3 0-3.2s2.4-.9 3.3 0l4 3.9c.9.9.9 2.3 0 3.2s-2.4.9-3.3 0"/><path d="M63.9 71.2c-1.2 1.1-3 1.1-4.2 0s-1.1-3 0-4.1l8.7-8.5c1.2-1.1 3-1.1 4.2 0s1.2 3 0 4.1z"/></g></g></svg>