<svg viewBox="0 0 50 44" xmlns="http://www.w3.org/2000/svg"><g><path d="M29.935 10.649c.85-.855 1.258-.857 2.107-.027C40.069 18.48 48.104 26.33 56.119 34.2c4.874 4.787 5.239 12.53.798 17.692-1.34 1.556-2.853 2.969-4.33 4.401-5.2 5.041-13.457 4.919-18.499-.246-5.052-5.174-10.11-10.343-15.165-15.513-2.797-2.861-5.598-5.72-8.392-8.585-.706-.723-.704-1.204.018-1.905.333-.324.713-.598 1.1-.916-.305-.331-.471-.52-.648-.698Q5.865 23.29.725 18.152C-.228 17.2-.238 16.84.7 15.9Q8.342 8.25 15.989.605c.81-.81 1.235-.808 2.055.011 2.153 2.15 4.308 4.3 6.455 6.454 1.483 1.487 2.957 2.986 4.522 4.567.349-.38.62-.694.914-.988M2.587 17.023 12.975 27.41 27.38 13 16.994 2.623z"/><path d="M17.022 7.218c.63.594 1.239 1.209 1.835 1.834.487.509.49 1.035.005 1.545a73 73 0 0 1-1.835 1.835c-.582.566-1.053.575-1.641.014a56 56 0 0 1-1.786-1.784c-.569-.594-.57-1.066-.011-1.646a45 45 0 0 1 1.791-1.778c.225-.209.532-.328.851-.518.3.185.582.304.79.5zm-.79 2.078c-.2.18-.375.341-.618.562l.58.508c.175-.168.336-.32.6-.571-.21-.188-.361-.321-.563-.5z"/><path d="M7.27 15.343c.543-.58 1.114-1.133 1.68-1.691.63-.622 1.102-.634 1.747-.013q.91.875 1.78 1.789c.506.533.51 1.017.012 1.54a66 66 0 0 1-1.881 1.885c-.514.495-1.03.504-1.544.017a46 46 0 0 1-1.88-1.887c-.193-.207-.293-.501-.467-.814.203-.308.342-.6.554-.827zM9.86 16.7l.513-.476-.547-.574-.66.588z"/></g></svg>