<svg viewBox="0 0 41 42" xmlns="http://www.w3.org/2000/svg"><g><path d="M22.614 14.735a.5.5 0 0 0-.513.031 6.44 6.44 0 0 0-2.711 4.424l-.475 3.51-.003.016c-.06.267.11.532.378.592.461.103.788.52.776.995-.011.533-.483.968-1.05.968h-.495q-.126 0-.247.013l-.043-.092-.41-.797a11.14 11.14 0 0 1-1.229-5.073V12.86a.496.496 0 1 0-.992 0v6.463c0 1.756-.424 3.51-1.229 5.072l-.41.797q-.023.044-.043.092a3 3 0 0 0-.247-.01h-.496c-.566 0-1.038-.436-1.05-.969a1 1 0 0 1 .775-.995.496.496 0 0 0 .378-.591l-.478-3.526a6.44 6.44 0 0 0-2.71-4.424.497.497 0 0 0-.779.409v13.075c0 .275.222.496.496.496h1.986a.496.496 0 1 0 0-.992h-1.489V16.24a5.44 5.44 0 0 1 1.513 3.085l.429 3.17a1.99 1.99 0 0 0-1.114 1.832c.026 1.069.944 1.937 2.044 1.937h.376a5.5 5.5 0 0 0 .629 4.307l1.496 2.411a.495.495 0 0 0 .842-.002l1.496-2.411a5.5 5.5 0 0 0 .63-4.307h.375c1.098.002 2.015-.867 2.042-1.936a1.99 1.99 0 0 0-1.114-1.833l.43-3.169a5.45 5.45 0 0 1 1.512-3.085v11.515h-1.655a.496.496 0 1 0 0 .992h2.152a.495.495 0 0 0 .496-.496V15.175a.5.5 0 0 0-.267-.44zm-7.36 10.112c.346-.672.627-1.376.84-2.102.214.726.496 1.43.842 2.102l.357.697c-.487.227-.902.58-1.2 1.022a2.95 2.95 0 0 0-1.2-1.022zm1.915 5.198-1.074 1.732-1.074-1.732a4.5 4.5 0 0 1-.5-3.58c.636.314 1.077.97 1.077 1.727v.993a.496.496 0 1 0 .992 0v-.993c0-.758.44-1.412 1.077-1.728a4.5 4.5 0 0 1-.5 3.581z"/><path d="M37.604 9.18a9.36 9.36 0 0 0-5.415-2.494v-2.4c0-1.357-1.7-2.44-5.055-3.22C24.176.378 20.256 0 16.094 0 11.93 0 8.012.378 5.055 1.066 1.701 1.846 0 2.93 0 4.286v33.428c0 1.357 1.7 2.44 5.055 3.22C8.011 41.62 11.932 42 16.094 42c4.161 0 8.082-.378 11.039-1.066 3.354-.78 5.055-1.864 5.055-3.22v-1.45a9.34 9.34 0 0 0 5.543-2.617c1.669-1.644 2.588-3.8 2.588-6.072v-12.2c0-2.337-.965-4.536-2.716-6.194zm-5.415 1.7c1.984.363 3.498 2.02 3.498 3.974v13.241c0 1.954-1.514 3.612-3.498 3.975zM5.377 2.448c2.855-.663 6.66-1.029 10.717-1.029s7.862.366 10.717 1.029c3.23.75 3.956 1.599 3.956 1.837v.003c-.006.243-.74 1.087-3.956 1.834-2.855.664-6.66 1.03-10.717 1.03s-7.862-.366-10.717-1.03c-3.23-.75-3.957-1.598-3.957-1.837S2.148 3.2 5.377 2.45m21.433 37.1c-2.855.664-6.66 1.029-10.717 1.029S8.23 40.214 5.377 39.55c-3.23-.75-3.957-1.599-3.957-1.837V6.205q1.263.75 3.635 1.301c2.957.688 6.877 1.066 11.039 1.066 4.161 0 8.082-.378 11.039-1.066q2.371-.552 3.634-1.301v31.509c0 .238-.727 1.086-3.956 1.837zm12.088-11.976c0 1.888-.77 3.685-2.165 5.06a7.92 7.92 0 0 1-4.546 2.2v-1.327c2.768-.384 4.918-2.684 4.918-5.413v-13.24c0-2.729-2.15-5.029-4.918-5.412V8.114a7.94 7.94 0 0 1 4.44 2.097c1.464 1.387 2.27 3.22 2.27 5.164z"/></g></svg>