<svg viewBox="0 0 57 50" xmlns="http://www.w3.org/2000/svg"><g><path d="M47.25 5.987a6.2 6.2 0 0 0 8.778 0c.809-.769.829-2.063.04-2.852a1.997 1.997 0 0 0-2.852-.04l-.04.04c-.85.85-2.225.85-3.055 0C47.836.85 44.195.748 41.748 2.791a6 6 0 0 0-1.295-.404L26.011.06a5.45 5.45 0 0 0-4.692 1.517L1.578 21.318c-2.104 2.104-2.104 5.543 0 7.646l16.768 16.768c.627.627 1.355 1.032 2.123 1.295a5.39 5.39 0 0 0 4.794 2.953h23.726a5.4 5.4 0 0 0 5.4-5.4V16.666c0-1.74-.85-3.378-2.245-4.39l-7.2-5.198-.041-.202a4.5 4.5 0 0 0-.344-1.153c.83-.526 1.942-.465 2.65.263zm3.094 10.68v27.912c0 .749-.607 1.376-1.355 1.376h-23.22s.161-.122.242-.203l19.741-19.74a5.39 5.39 0 0 0 1.517-4.693l-1.375-8.596 3.924 2.831c.344.263.566.668.566 1.113zM4.045 25.142c0-.364.142-.708.405-.971L24.19 4.45a1.4 1.4 0 0 1 1.174-.384L38.31 6.149l-1.315 1.315c-2.245-1.012-5.097-.648-6.877 1.153-2.366 2.366-2.366 6.23 0 8.596a6.02 6.02 0 0 0 4.288 1.78 5.98 5.98 0 0 0 4.288-1.78 6.05 6.05 0 0 0 1.174-6.897L41.16 9.02l2.083 12.965c.061.425-.08.87-.384 1.173L23.119 42.901a1.367 1.367 0 0 1-1.922 0L4.45 26.112a1.36 1.36 0 0 1-.405-.97M35.862 14.34a2.04 2.04 0 0 1-2.873 0 2.04 2.04 0 0 1 .142-2.872 2.02 2.02 0 0 1 2.73 0 2.04 2.04 0 0 1 0 2.872"/><path d="M21.299 22.957h.12c2.772 0 5.037-2.204 5.058-4.975v-.183c-.061-2.811-2.407-5.157-5.24-5.238a4.99 4.99 0 0 0-3.7 1.476 5.06 5.06 0 0 0-1.477 3.702c.06 2.811 2.407 5.157 5.239 5.238zm-1.194-5.32c-.02-.546.384-1.01.93-1.03h.122c.688.04 1.254.586 1.274 1.273 0 .284-.08.547-.283.749-.142.141-.404.263-.748.283-.688-.04-1.254-.587-1.275-1.274zm1.578 21.542h.121c2.771 0 5.037-2.225 5.057-4.996V34c-.06-2.812-2.407-5.158-5.239-5.239-1.315.02-2.71.486-3.701 1.477a5.06 5.06 0 0 0-1.477 3.701c.06 2.812 2.407 5.158 5.239 5.239m-.89-6.068a.95.95 0 0 1 .728-.283h.02c.688.04 1.254.586 1.274 1.274 0 .283-.08.546-.283.748a1.1 1.1 0 0 1-.748.284c-.688-.04-1.254-.587-1.274-1.275 0-.283.08-.546.283-.748m7.99-5.036h.04c1.112-.04 2.002-.971 1.962-2.084a2.04 2.04 0 0 0-1.922-1.962l-14.785-.344c-1.113 0-2.043.87-2.063 1.983a2.016 2.016 0 0 0 1.982 2.063z"/></g></svg>