<svg viewBox="0 0 36 46" xmlns="http://www.w3.org/2000/svg"><g><path d="M35.993 19.91c-.007-1.175-.382-2.23-1.165-3.124-.997-1.139-2.265-1.659-3.765-1.654-.866.002-1.733 0-2.64 0 0-.923.009-1.792-.003-2.66-.012-.769-.356-1.105-1.118-1.106H16.124v-.001H7.586v-.002h-.509q-2.035 0-4.069.002h-.493l-1.423.001c-.719.001-1.09.37-1.09 1.09-.001 8.794-.007 17.588.004 26.382.004 2.95 1.982 5.52 4.824 6.336.307.088.618.168.928.251H22.61c.112-.03.222-.072.337-.09 2.909-.475 5.269-3.058 5.428-6.004.066-1.209.037-2.422.043-3.633.007-1.15.001-2.298.001-3.495.878 0 1.702-.006 2.527 0 2.978.022 5.063-2.054 5.053-5.022-.008-2.423.008-4.847-.007-7.27zm-1.937 7.686c-.008 1.35-1.206 2.605-2.546 2.658-1.003.039-2.008.008-3.053.008V17.116c1.128 0 2.241-.097 3.329.025 1.306.147 2.263 1.341 2.27 2.656q.023 3.9 0 7.799"/><path d="M13.895 6.07c.5.958.362 1.286-.303 1.74-.419.287-.459.813-.193 1.228.263.41.76.581 1.198.35.902-.475 1.758-1.534 1.467-2.764-.15-.636-.416-1.252-.691-1.849-.283-.614-.664-1.182-.96-1.79-.289-.599-.202-.78.285-1.224.223-.203.368-.493.548-.743-.097-.772-.864-1.252-1.48-.9-.675.383-1.175.927-1.358 1.717-.208.899.115 1.688.505 2.457.306.604.669 1.179.982 1.78z"/><path d="M6.491 6.339c.323.657.238.924-.315 1.373-.487.395-.59.96-.254 1.392.357.456.88.504 1.41.13 1.279-.903 1.603-2.15.896-3.703-.346-.762-.81-1.469-1.191-2.216-.38-.743-.523-1.173.265-1.657.357-.22.407-.642.258-1.035-.15-.394-.45-.606-.947-.615-.068.017-.21.023-.318.085-.735.418-1.284.988-1.432 1.857-.141.828.129 1.574.498 2.289.366.706.78 1.387 1.13 2.1"/><path d="M21.643 6.493c.241.522.136.8-.3 1.158-.08.066-.161.13-.235.202a.955.955 0 0 0-.124 1.212c.277.397.803.56 1.213.313.963-.583 1.767-1.541 1.397-2.922-.2-.743-.588-1.437-.912-2.143-.258-.56-.586-1.092-.802-1.667-.07-.186.083-.484.192-.701.066-.132.253-.199.367-.313.304-.307.356-.682.192-1.063-.16-.369-.464-.563-.953-.558-.058.016-.191.034-.31.087-.878.394-1.478 1.396-1.443 2.36.029.795.36 1.48.726 2.16.335.623.695 1.234.991 1.876z"/></g></svg>