<svg viewBox="0 0 37 50" xmlns="http://www.w3.org/2000/svg"><g><path d="M36.988 18.355C37.004 8.228 28.81.017 18.7 0 8.573-.017.362 8.178.345 18.288c0 4.68 1.783 9.194 4.997 12.608v17.438c0 .916.75 1.666 1.666 1.666.216 0 .45-.05.65-.133l11.009-4.714 11.009 4.714c.2.083.433.133.65.133.333 0 .649-.1.915-.283.467-.3.75-.833.75-1.383V30.897a18.4 18.4 0 0 0 4.997-12.541M18.667 3.365c8.277 0 14.99 6.712 14.99 14.99 0 8.277-6.713 14.99-14.99 14.99s-14.99-6.713-14.99-14.99 6.712-14.99 14.99-14.99m.65 38.44a1.6 1.6 0 0 0-1.3 0l-9.344 3.998V33.694a18.35 18.35 0 0 0 19.987 0v12.109z"/><path d="m9.04 20.487.333.25c.566.4.8 1.115.583 1.765l-.133.4c-.817 2.581.632 5.346 3.214 6.162a4.92 4.92 0 0 0 4.364-.716l.333-.233a1.55 1.55 0 0 1 1.865 0l.333.233c2.299 1.532 5.397.9 6.93-1.4a5 5 0 0 0 .649-4.096l-.133-.4a1.56 1.56 0 0 1 .582-1.766l.334-.25c2.131-1.765 2.431-4.913.666-7.028a5.03 5.03 0 0 0-3.631-1.816h-.416a1.68 1.68 0 0 1-1.5-1.099l-.066-.466a5 5 0 0 0-6.43-2.932 5 5 0 0 0-2.93 2.932l-.134.4a1.68 1.68 0 0 1-1.499 1.099h-.35a4.98 4.98 0 0 0-4.763 5.213 5.04 5.04 0 0 0 1.865 3.68zm1.382-4.464c.2-.7.866-1.15 1.582-1.1h.417c2.098 0 3.98-1.348 4.68-3.33l.117-.384a1.68 1.68 0 0 1 2.198-.832c.366.166.666.466.833.832l.117.383a5 5 0 0 0 4.68 3.415h.283c.866 0 1.582.7 1.582 1.582 0 .516-.25.983-.65 1.283l-.333.25a4.88 4.88 0 0 0-1.782 5.496l.133.4a1.665 1.665 0 0 1-1.332 1.948 1.72 1.72 0 0 1-1.116-.183l-.333-.233a5.005 5.005 0 0 0-5.796 0l-.333.233c-.8.45-1.816.166-2.265-.65a1.74 1.74 0 0 1-.183-1.116l.133-.4a4.88 4.88 0 0 0-1.782-5.496l-.334-.25a1.53 1.53 0 0 1-.516-1.848"/></g></svg>