<svg viewBox="0 0 56 44" xmlns="http://www.w3.org/2000/svg"><g><path d="M43.465 56.337c5.623-4.745 11.266-9.467 16.903-14.196l1.704-1.43-20.974-24.996L21.84 31.874l2.384 2.84c-1.18.991-2.31 1.923-3.42 2.875-1.697 1.455-1.92 4.062-.484 5.78a6740 6740 0 0 0 11.187 13.333c1.302 1.547 3.47 2.014 5.188.955 1.16-.715 2.166-1.686 3.237-2.546.274-.22.538-.451.836-.701.558.665 1.089 1.224 1.532 1.847.397.558.68.487 1.163.08M32.259 34.794l10.097-8.473 9.692 11.55-10.098 8.472zm6.463 17.45c-1.115.936-2.176 1.874-3.29 2.742-.618.48-1.363.346-1.87-.258q-5.551-6.6-11.088-13.214c-.465-.554-.52-1.29-.04-1.723 1.1-.99 2.258-1.916 3.417-2.889l12.873 15.341z"/><path d="m16.668 21.885 1.828-1.534-2.634-3.14.983-.825 2.637 3.143 1.758-1.475-2.633-3.139 1.025-.86 2.65 3.158 1.748-1.467-2.648-3.156 1.002-.84 2.627 3.13 1.782-1.497-2.632-3.137.985-.827 2.636 3.14 1.748-1.467-2.638-3.143 1.022-.858 2.643 3.15 1.825-1.53c-2.16-2.574-4.234-5.159-6.44-7.629C24.858-.132 23.03-.13 21.76.925a1317 1317 0 0 0-10.94 9.184c-1.389 1.18-1.504 3.069-.336 4.47 1.923 2.304 3.857 4.598 5.789 6.896.125.149.27.279.398.409z"/><path d="M63.762 42.67 44.493 58.84c.64.761 1.245 1.485 1.852 2.206 1.26 1.496 2.88 1.646 4.383.392 2.392-1.996 4.776-4.002 7.161-6.004 2.508-2.104 5.02-4.202 7.518-6.315 1.16-.982 1.457-2.606.638-3.703-.7-.937-1.496-1.804-2.284-2.744"/><path d="M37.636 11.53c-1.04-1.209-2.693-1.361-3.918-.336q-7.526 6.303-15.04 12.62c-.898.753-1.3 2.123-.726 3.126.593 1.035 1.411 1.94 2.148 2.927l19.32-16.211c-.627-.749-1.2-1.443-1.785-2.126"/></g></svg>