<svg viewBox="0 0 56 44" xmlns="http://www.w3.org/2000/svg"><g><path d="m14.654 23.166-1.107-1.319L34.81 4.007l4.807 5.73L18.373 27.56l-2.236-2.665c-.914.637-1.176 1.25-.851 2.183.429 1.235.95 2.41 1.824 3.443 5.75 6.803 11.465 13.635 17.185 20.464 1.51 1.8 1.414 4.365-.19 5.852-1.784 1.658-4.253 1.656-6.002-.03a4.2 4.2 0 0 1-.775-1.078c-2.95-5.717-5.881-11.44-8.821-17.162-1.305-2.537-2.636-5.06-3.918-7.609-.472-.938-.826-1.934-1.25-2.898-.755-1.716-.374-3.191.917-4.486.114-.114.224-.23.398-.41m6.601 15.718-.082.106q1.584 3.083 3.172 6.165c1.649 3.2 3.29 6.402 4.956 9.593.617 1.183 2.003 1.488 3.043.719 1.033-.764 1.118-2.034.196-3.133q-4.153-4.954-8.31-9.903l-2.974-3.544z"/><path d="M12.36 19.993c-.768-1.574-1.527-3.096-2.233-4.641-.076-.165.097-.555.271-.705 1.94-1.66 3.902-3.295 5.858-4.937C20.24 6.37 24.23 3.031 28.204-.323c.381-.32.634-.392 1.066-.054 1.124.877 2.3 1.688 3.451 2.53.145.106.271.237.44.387z"/><path d="M40.912 11.488 19.629 29.347l17.074 17.747 19.08-16.009-14.514-19.897-.358.301"/><path d="m66.222 43.781-9.14-10.892-18.829 15.799 9.14 10.893 18.828-15.799z"/></g></svg>