<svg viewBox="0 0 43 50" xmlns="http://www.w3.org/2000/svg"><path d="M26.198 0h-9.524a2.39 2.39 0 0 0-2.381 2.381 2.39 2.39 0 0 0 2.38 2.38h9.525c1.31 0 2.38-1.07 2.38-2.38A2.39 2.39 0 0 0 26.199 0m-4.762 30.952c1.31 0 2.38-1.071 2.38-2.38v-9.524c0-1.31-1.07-2.381-2.38-2.381a2.39 2.39 0 0 0-2.381 2.38v9.524a2.39 2.39 0 0 0 2.38 2.381m16.738-15.738 1.786-1.785a2.364 2.364 0 0 0 0-3.334h-.024c-.929-.952-2.405-.928-3.334-.024l-1.785 1.786c-3.69-2.952-8.334-4.714-13.381-4.714C10.007 7.143.293 16.57.007 28c-.31 12.095 9.381 22 21.429 22s21.428-9.595 21.428-21.429a21.34 21.34 0 0 0-4.69-13.357M21.436 45.238c-9.214 0-16.667-7.452-16.667-16.667 0-9.214 7.453-16.666 16.667-16.666s16.667 7.452 16.667 16.666-7.453 16.667-16.667 16.667"/></svg>