<svg xmlns="http://www.w3.org/2000/svg" viewBox="0 0 100 100"><defs><style>.cls-1 {
        fill: #fff;
      }</style></defs><g><g><path class="cls-1" d="m79.97 67.71 17.52-2.37-8.39-8.39-29.2 4.56-3.1 27.55 8.4 8.39 1.64-18.43c0-.91 1.28-1.46 2.01-.73l21.53 21.53 9.67-9.67-20.62-20.44c-.73-.73-.37-1.82.55-2.01Z"/><path class="cls-1" d="M61.35 50.01c0-6.2-5.11-11.5-11.5-11.5s-11.5 5.11-11.5 11.5 5.11 11.5 11.5 11.5 11.5-5.29 11.5-11.5"/><path class="cls-1" d="m10.99 56.76-8.4 8.39 18.43 1.64c.91 0 1.46 1.28.73 2.01L.04 90.34l9.67 9.67 20.62-20.62c.73-.73 1.82-.37 2.01.73l2.37 17.52 8.39-8.39-4.56-29.2-27.55-3.28Z"/><path class="cls-1" d="M20.84 33.22 2.41 34.86l8.39 8.39 27.56-3.1 4.56-29.2-8.4-8.39-2.37 17.52c-.18.91-1.28 1.28-2.01.73L9.71 0 .04 9.68l21.53 21.53c.73.73.37 2.01-.73 2.01"/><path class="cls-1" d="m89.09 43.07 8.39-8.39-17.52-2.37c-.91-.18-1.28-1.28-.73-2.01L99.85 9.68 90.18 0 68.83 21.53c-.73.73-1.82.18-2.01-.73L65.18 2.37l-8.4 8.39 3.1 27.56 29.2 4.74Z"/></g></g></svg>