<?xml version="1.0" encoding="utf-8"?>
<!-- Generator: Adobe Illustrator 27.0.0, SVG Export Plug-In . SVG Version: 6.00 Build 0)  -->
<svg version="1.1" id="Шар_1" xmlns="http://www.w3.org/2000/svg" xmlns:xlink="http://www.w3.org/1999/xlink" x="0px" y="0px"
	 viewBox="0 0 27 34" style="enable-background:new 0 0 27 34;" xml:space="preserve">
<style type="text/css">
	.st0{clip-path:url(#SVGID_00000098924686408845763360000003896729145503621563_);}
	.st1{fill:#FFFFFF;}
</style>
<g>
	<defs>
		<rect id="SVGID_1_" x="0.3" y="0.3" width="26.3" height="33.4"/>
	</defs>
	<clipPath id="SVGID_00000136410575760409875810000010672880996275676819_">
		<use xlink:href="#SVGID_1_"  style="overflow:visible;"/>
	</clipPath>
	<g style="clip-path:url(#SVGID_00000136410575760409875810000010672880996275676819_);">
		<path class="st1" d="M25.4,3.3h-7.6V1.6c0-0.7-0.5-1.3-1.3-1.3h-5.9c-0.7,0-1.3,0.6-1.3,1.3v1.7H1.6c-0.7,0-1.3,0.6-1.3,1.3v3.7
			c0,0.7,0.6,1.3,1.3,1.3h1v21.3c0,1.6,1.4,2.9,3.1,2.9h15.7c1.7,0,3.1-1.3,3.1-2.9V9.6h0.9c0.8,0,1.3-0.6,1.3-1.3V4.6
			C26.7,3.8,26.1,3.3,25.4,3.3z M11.9,2.9h3.3v0.4h-3.3V2.9z M21.9,30.9c0,0.2-0.2,0.4-0.5,0.4H5.7c-0.2,0-0.5-0.2-0.5-0.4V9.6h16.7
			V30.9z M24,7H2.9V5.9H24V7z"/>
		<path class="st1" d="M19.2,13.6v13.5c0,0.7-0.6,1.2-1.3,1.2s-1.3-0.5-1.3-1.2V13.6c0-0.7,0.6-1.2,1.3-1.2S19.2,12.9,19.2,13.6z"/>
		<path class="st1" d="M14.8,13.6v13.5c0,0.7-0.6,1.2-1.3,1.2c-0.7,0-1.3-0.5-1.3-1.2V13.6c0-0.7,0.6-1.2,1.3-1.2
			C14.2,12.4,14.8,12.9,14.8,13.6z"/>
		<path class="st1" d="M10.4,13.6v13.5c0,0.7-0.6,1.2-1.3,1.2c-0.8,0-1.3-0.5-1.3-1.2V13.6c0-0.7,0.6-1.2,1.3-1.2
			C9.8,12.4,10.4,12.9,10.4,13.6z"/>
	</g>
</g>
</svg>
