<svg width="36" height="36" viewBox="0 0 36 36" fill="none" xmlns="http://www.w3.org/2000/svg">
<g clip-path="url(#clip0_1578_1034)">
<path d="M9.65279 19.5809C9.65279 19.414 9.71171 19.2569 9.83937 19.1292L11.2436 17.725C11.3615 17.6071 11.5284 17.5384 11.6953 17.5384C11.8623 17.5384 12.0292 17.6071 12.1471 17.725L16.242 21.8199L16.242 7.97375C16.242 7.62023 16.5268 7.33545 16.8803 7.33545L19.2567 7.33545C19.6102 7.33545 19.895 7.62023 19.895 7.97375L19.895 21.6726L23.8426 17.725C23.9605 17.6071 24.1274 17.5384 24.2944 17.5384C24.4613 17.5384 24.6282 17.6071 24.7461 17.725L26.1503 19.1292C26.278 19.2569 26.3369 19.414 26.3369 19.5809C26.3369 19.7479 26.278 19.905 26.1503 20.0327L18.4417 27.7315C18.1962 27.9868 17.7837 27.9868 17.5382 27.7315L9.83937 20.0327C9.71171 19.905 9.65279 19.7479 9.65279 19.5809Z" fill="white"/>
<path d="M-7.86805e-07 18C-3.52839e-07 8.07201 8.07201 -1.22077e-06 18 -7.86805e-07C27.928 -3.52839e-07 36 8.07201 36 18C36 27.928 27.928 36 18 36C8.07201 36 -1.22077e-06 27.928 -7.86805e-07 18ZM33.437 18C33.437 9.48609 26.5139 2.56301 18 2.56301C9.48609 2.56301 2.56301 9.48609 2.56301 18C2.56301 26.5139 9.48609 33.437 18 33.437C26.5139 33.437 33.437 26.5139 33.437 18Z" fill="white"/>
</g>
<defs>
<clipPath id="clip0_1578_1034">
<rect width="36" height="36" fill="white" transform="translate(36) rotate(90)"/>
</clipPath>
</defs>
</svg>
