<svg width="32" height="33" viewBox="0 0 32 33" fill="none" xmlns="http://www.w3.org/2000/svg">
<g clip-path="url(#clip0_1579_1067)">
<path d="M22.4398 31.6702H8.88977C8.53977 31.6702 8.25977 31.9502 8.25977 32.3002C8.25977 32.6502 8.53977 32.9302 8.88977 32.9302H22.4398C23.2798 32.9302 23.7898 32.6202 24.0698 32.3502C24.4398 32.0002 24.6498 31.5102 24.6498 30.9902C24.6498 29.9602 23.8198 28.9002 22.4398 28.9002H17.0598C16.4098 28.9002 16.1098 28.6402 16.1098 28.4702C16.1098 28.3902 16.1698 28.2902 16.2798 28.2102C16.3998 28.1202 16.6798 27.9802 17.2198 27.9802H23.4198C24.4398 27.9802 24.9998 27.2202 24.9998 26.5102C24.9998 26.1002 24.8298 25.7102 24.5398 25.4302C24.3198 25.2202 23.9198 24.9702 23.2898 24.9702C22.9398 24.9702 22.6598 25.2502 22.6598 25.6002C22.6598 25.9502 22.9398 26.2302 23.2898 26.2302C23.4598 26.2302 23.5998 26.2702 23.6798 26.3502C23.7498 26.4102 23.7598 26.4902 23.7598 26.5302C23.7598 26.6702 23.6398 26.7502 23.4398 26.7502H17.2398C16.5698 26.7502 15.9898 26.9102 15.5698 27.2202C15.1298 27.5402 14.8798 28.0002 14.8798 28.4902C14.8798 29.3302 15.6398 30.1702 17.0798 30.1702H22.4598C23.1598 30.1702 23.4198 30.6702 23.4198 31.0102C23.4198 31.1402 23.3898 31.3102 23.2298 31.4602C23.0698 31.6102 22.7998 31.7002 22.4598 31.7002L22.4398 31.6702Z" fill="white"/>
<path d="M0.699844 32L7.04984 31.22C7.09984 31.22 7.14984 31.2 7.19984 31.18C7.19984 31.18 7.20984 31.18 7.21984 31.18C7.28984 31.15 7.34984 31.11 7.39984 31.06C7.39984 31.06 7.40984 31.06 7.41984 31.05L14.4798 23.99L25.9598 12.51L26.6998 11.77L27.0998 12.17L16.6998 22.57C16.4598 22.81 16.4598 23.21 16.6998 23.46C16.8198 23.58 16.9798 23.64 17.1398 23.64C17.2998 23.64 17.4598 23.58 17.5798 23.46L28.4198 12.62C28.6598 12.38 28.6598 11.98 28.4198 11.73L27.5798 10.89C28.2198 10.22 28.2098 9.16002 27.5598 8.51002L27.4098 8.36002L31.2098 4.56002C32.2498 3.52002 32.2498 1.84002 31.2098 0.80002C30.7098 0.30002 30.0398 0.0200195 29.3298 0.0200195C28.6198 0.0200195 27.9498 0.30002 27.4498 0.80002L23.6498 4.60002L23.4998 4.45002C22.8398 3.79002 21.7598 3.79002 21.0898 4.45002L19.4898 6.05002L8.00984 17.54L0.959844 24.58C0.959844 24.58 0.959844 24.59 0.949844 24.6C0.899844 24.65 0.859844 24.71 0.829844 24.78C0.829844 24.78 0.829844 24.78 0.829844 24.79C0.809844 24.84 0.799844 24.89 0.789844 24.94L-0.00015625 31.3C-0.0201562 31.49 0.0398438 31.68 0.179844 31.82C0.299844 31.94 0.459844 32 0.619844 32C0.649844 32 0.669844 32 0.699844 32ZM1.52984 29.11L2.88984 30.47L1.33984 30.66L1.52984 29.11ZM4.46984 30.28L1.71984 27.53L1.85984 26.37L5.61984 30.13L4.45984 30.27L4.46984 30.28ZM21.9898 5.32002C22.1598 5.15002 22.4598 5.15002 22.6298 5.32002L23.2198 5.91002L26.0998 8.79002L26.6898 9.38002C26.6898 9.38002 26.7298 9.44002 26.7498 9.47002C26.7598 9.49002 26.7798 9.51002 26.7898 9.53002C26.8598 9.69002 26.8198 9.89002 26.6898 10.02L25.5298 11.18L20.8398 6.49002L21.9998 5.33002L21.9898 5.32002ZM28.3398 1.67002C28.8698 1.14002 29.7998 1.14002 30.3298 1.67002C30.8598 2.20002 30.8798 3.11002 30.3298 3.66002L26.5298 7.46002L26.2498 7.18002L28.4198 5.01002C28.6598 4.77002 28.6598 4.37002 28.4198 4.12002C28.1798 3.87002 27.7798 3.88002 27.5298 4.12002L25.3598 6.29002L24.5298 5.46002L28.3298 1.66002L28.3398 1.67002ZM19.9498 7.36002L24.6398 12.05L14.0398 22.65L10.6298 19.24L12.9198 16.95C13.1598 16.71 13.1598 16.31 12.9198 16.06C12.6798 15.81 12.2798 15.82 12.0298 16.06L9.73984 18.35L9.33984 17.95L19.9498 7.36002ZM8.45984 18.85L8.85984 19.25L7.33984 20.77C7.09984 21.01 7.09984 21.41 7.33984 21.66C7.45984 21.78 7.61984 21.84 7.77984 21.84C7.93984 21.84 8.09984 21.78 8.21984 21.66L9.73984 20.14L13.1498 23.55L6.96984 29.73L2.27984 25.04L8.45984 18.86V18.85Z" fill="white"/>
</g>
<defs>
<clipPath id="clip0_1579_1067">
<rect width="32" height="32.92" fill="white"/>
</clipPath>
</defs>
</svg>
