<svg width="24" height="24" viewBox="0 0 24 24" fill="none" xmlns="http://www.w3.org/2000/svg">
<g clip-path="url(#clip0_1565_833)">
<path d="M23.4125 9.63631H21.3547C21.1055 9.63631 20.8741 9.47612 20.7993 9.23762C20.6355 8.71433 20.4255 8.20884 20.1727 7.73183C20.0552 7.50756 20.105 7.23346 20.283 7.05547L21.7392 5.59953C21.9671 5.3717 21.9671 5.00148 21.7392 4.77366L19.2292 2.26046C19.0013 2.02907 18.6275 2.02907 18.3996 2.2569L16.9435 3.7164C16.7655 3.89083 16.4913 3.94067 16.2706 3.82676C15.7899 3.57401 15.2844 3.36755 14.761 3.20024C14.5189 3.12548 14.3623 2.89766 14.3623 2.64491V0.587363C14.3623 0.263423 14.0988 0 13.7748 0H10.2216C9.89764 0 9.63774 0.263423 9.63774 0.587363V2.64491C9.63774 2.89766 9.47753 3.12548 9.23899 3.20024C8.71562 3.36399 8.21006 3.57401 7.73298 3.82676C7.50868 3.94423 7.23453 3.89439 7.05652 3.7164L5.60036 2.26046C5.3725 2.02907 4.99866 2.02907 4.77081 2.26046L2.25723 4.77366C2.02937 5.00148 2.02937 5.3717 2.25723 5.59953L3.7134 7.05547C3.89141 7.23346 3.94125 7.50756 3.82376 7.73183C3.57098 8.20884 3.36093 8.71433 3.19715 9.23762C3.12239 9.47612 2.89097 9.63631 2.64174 9.63631H0.58389C0.259902 9.63631 0 9.89973 0 10.2237V13.7763C0 14.1003 0.259902 14.3637 0.58389 14.3637H2.6453C2.89453 14.3637 3.12595 14.5239 3.20071 14.7624C3.36093 15.2857 3.57098 15.7876 3.82376 16.2682C3.94125 16.4889 3.89141 16.7665 3.7134 16.9445L2.25723 18.4005C2.02937 18.6283 2.02937 18.9985 2.25723 19.2263L4.77081 21.7395C4.99866 21.9709 5.3725 21.9709 5.60036 21.7395L7.05652 20.2836C7.23453 20.1056 7.50868 20.0558 7.73298 20.1732C8.21006 20.426 8.71562 20.6325 9.23899 20.7998C9.47753 20.8745 9.63774 21.1023 9.63774 21.3551V23.4126C9.63774 23.7366 9.89764 24 10.2216 24H13.7748C14.0988 24 14.3623 23.7366 14.3623 23.4126V21.3551C14.3623 21.1023 14.5189 20.8745 14.761 20.7998C15.2844 20.6325 15.7864 20.426 16.2635 20.1732C16.4878 20.0558 16.7619 20.1056 16.9399 20.2836L18.3996 21.7431C18.6275 21.9709 19.0013 21.9709 19.2292 21.7395L21.7392 19.2263C21.9671 18.9985 21.9671 18.6283 21.7392 18.4005L20.283 16.9445C20.105 16.7665 20.0552 16.4889 20.1727 16.2682C20.4255 15.7876 20.6355 15.2857 20.7957 14.7624C20.8741 14.5239 21.1019 14.3637 21.3511 14.3637H23.4125C23.7365 14.3637 24 14.1003 24 13.7763V10.2237C24 9.89973 23.7365 9.63631 23.4125 9.63631ZM11.9982 18.7244C8.28482 18.7244 5.27281 15.7128 5.27281 12C5.27281 8.28716 8.28482 5.27559 11.9982 5.27559C15.7116 5.27559 18.7236 8.28716 18.7236 12C18.7236 15.7128 15.7116 18.7244 11.9982 18.7244Z" fill="white"/>
</g>
<defs>
<clipPath id="clip0_1565_833">
<rect width="24" height="24" fill="white"/>
</clipPath>
</defs>
</svg>
