<svg width="36" height="36" viewBox="0 0 36 36" fill="none" xmlns="http://www.w3.org/2000/svg">
<g clip-path="url(#clip0_1575_958)">
<path d="M26.3472 16.4191C26.3472 16.586 26.2883 16.7431 26.1606 16.8708L24.7564 18.275C24.6385 18.3929 24.4716 18.4616 24.3047 18.4616C24.1377 18.4616 23.9708 18.3929 23.8529 18.275L19.758 14.1801L19.758 28.0263C19.758 28.3798 19.4732 28.6646 19.1197 28.6646L16.7433 28.6646C16.3898 28.6646 16.105 28.3798 16.105 28.0263L16.105 14.3274L12.1574 18.275C12.0395 18.3929 11.8726 18.4616 11.7056 18.4616C11.5387 18.4616 11.3718 18.3929 11.2539 18.275L9.84966 16.8708C9.72201 16.7431 9.66309 16.586 9.66309 16.4191C9.66309 16.2521 9.72201 16.095 9.84966 15.9673L17.5583 8.26848C17.8038 8.01316 18.2163 8.01316 18.4618 8.26848L26.1606 15.9673C26.2883 16.095 26.3472 16.2521 26.3472 16.4191Z" fill="white"/>
<path d="M36 18C36 27.928 27.928 36 18 36C8.07201 36 0 27.928 0 18C0 8.07201 8.07201 0 18 0C27.928 0 36 8.07201 36 18ZM2.56301 18C2.56301 26.5139 9.48609 33.437 18 33.437C26.5139 33.437 33.437 26.5139 33.437 18C33.437 9.48609 26.5139 2.56301 18 2.56301C9.48609 2.56301 2.56301 9.48609 2.56301 18Z" fill="white"/>
</g>
<defs>
<clipPath id="clip0_1575_958">
<rect width="36" height="36" fill="white" transform="matrix(0 -1 1 0 0 36)"/>
</clipPath>
</defs>
</svg>
